<svg width="362" height="459" viewBox="0 0 362 459" fill="none" xmlns="http://www.w3.org/2000/svg">
<path d="M131.5 418V2H339.5V52.5V99.5H302.5V52.5V50.5H300.5H182.5H180.5V52.5V418V420H182.5H339.5V457H2V420H129.5H131.5V418Z" fill="#222222" stroke="#DCDCDC" stroke-width="4"/>
<path d="M360.5 145C360.5 166.211 342.644 183.5 320.5 183.5C298.356 183.5 280.5 166.211 280.5 145C280.5 123.789 298.356 106.5 320.5 106.5C342.644 106.5 360.5 123.789 360.5 145Z" fill="#DCDCDC" stroke="#222222" stroke-width="3"/>
<line x1="308.5" y1="124" x2="308.5" y2="140" stroke="black" stroke-width="5"/>
<line x1="333.5" y1="124" x2="333.5" y2="140" stroke="black" stroke-width="5"/>
<path d="M297 154C317.987 167.35 328.312 166.143 345 154" stroke="black" stroke-width="5"/>
</svg>
